<svg width="14" height="14" viewBox="0 0 14 14" fill="none" xmlns="http://www.w3.org/2000/svg">
<path fill-rule="evenodd" clip-rule="evenodd" d="M5.8672 10.1435C8.27956 10.1435 10.2352 8.1879 10.2352 5.77553C10.2352 3.36316 8.27956 1.40755 5.8672 1.40755C3.45483 1.40755 1.49922 3.36316 1.49922 5.77553C1.49922 8.1879 3.45483 10.1435 5.8672 10.1435ZM5.8672 11.2355C8.88265 11.2355 11.3272 8.79099 11.3272 5.77553C11.3272 2.76007 8.88265 0.315552 5.8672 0.315552C2.85174 0.315552 0.407227 2.76007 0.407227 5.77553C0.407227 8.79099 2.85174 11.2355 5.8672 11.2355Z" fill="black"/>
<rect width="1.09199" height="5.45997" transform="matrix(0.707106 -0.707107 0.707106 0.707107 9.14331 9.82367)" fill="#222222"/>
</svg>
