<svg width="15" height="15" viewBox="0 0 15 15" fill="none" xmlns="http://www.w3.org/2000/svg">
<path d="M11.7347 14.3532C11.6216 14.3537 11.5101 14.327 11.4094 14.2755L7.80251 12.3871L4.1956 14.2755C4.07847 14.337 3.94642 14.3645 3.81445 14.3548C3.68248 14.3451 3.55589 14.2985 3.44906 14.2204C3.34223 14.1423 3.25946 14.0358 3.21014 13.913C3.16083 13.7902 3.14696 13.6561 3.1701 13.5258L3.87734 9.54404L0.963525 6.71509C0.872615 6.62437 0.808125 6.51061 0.776976 6.38601C0.745826 6.26141 0.749193 6.13068 0.786716 6.00785C0.827707 5.88216 0.90311 5.77047 1.00437 5.68547C1.10563 5.60046 1.22868 5.54554 1.35958 5.52693L5.39083 4.93993L7.16599 1.3118C7.2239 1.19223 7.31433 1.09139 7.4269 1.02083C7.53947 0.950265 7.66965 0.912842 7.80251 0.912842C7.93536 0.912842 8.06554 0.950265 8.17811 1.02083C8.29068 1.09139 8.38111 1.19223 8.43902 1.3118L10.2354 4.93285L14.2667 5.51986C14.3975 5.53847 14.5206 5.59339 14.6219 5.67839C14.7231 5.7634 14.7985 5.87509 14.8395 6.00078C14.877 6.12361 14.8804 6.25434 14.8493 6.37894C14.8181 6.50353 14.7536 6.6173 14.6627 6.70802L11.7489 9.53696L12.4561 13.5187C12.4814 13.6513 12.4682 13.7883 12.418 13.9137C12.3679 14.039 12.283 14.1473 12.1732 14.2259C12.0452 14.3157 11.891 14.3605 11.7347 14.3532Z" fill="#FFB800"/>
</svg>
